<svg xmlns="http://www.w3.org/2000/svg" viewBox="0 0 32 32" fill="none">
  <rect width="32" height="32" rx="6" fill="#4F46E5"/>
  
  <!-- Workflow nodes -->
  <circle cx="8" cy="12" r="2.5" fill="#FFFFFF" stroke="#E0E7FF" stroke-width="1"/>
  <circle cx="16" cy="8" r="2.5" fill="#FFFFFF" stroke="#E0E7FF" stroke-width="1"/>
  <circle cx="24" cy="12" r="2.5" fill="#FFFFFF" stroke="#E0E7FF" stroke-width="1"/>
  <circle cx="16" cy="20" r="2.5" fill="#FFFFFF" stroke="#E0E7FF" stroke-width="1"/>
  
  <!-- Connecting lines -->
  <line x1="10.5" y1="12" x2="13.5" y2="8" stroke="#FFFFFF" stroke-width="2" stroke-linecap="round"/>
  <line x1="18.5" y1="8" x2="21.5" y2="12" stroke="#FFFFFF" stroke-width="2" stroke-linecap="round"/>
  <line x1="16" y1="10.5" x2="16" y2="17.5" stroke="#FFFFFF" stroke-width="2" stroke-linecap="round"/>
  <line x1="10.5" y1="14" x2="13.5" y2="18" stroke="#FFFFFF" stroke-width="2" stroke-linecap="round"/>
  <line x1="18.5" y1="18" x2="21.5" y2="14" stroke="#FFFFFF" stroke-width="2" stroke-linecap="round"/>
  
  <!-- Small gear icon in corner -->
  <g transform="translate(26, 26) scale(0.4)">
    <path d="M12 1L14.2 6.4L20 5L21 11L15.6 13.2L20 19L14 20L11.8 25.6L6 24L5 18L10.4 15.8L6 10L12 9L12 1Z" fill="#FFFFFF" opacity="0.8"/>
  </g>
</svg> 